<svg width="513" height="513" viewBox="0 0 513 513" fill="none" xmlns="http://www.w3.org/2000/svg">
<circle cx="256.831" cy="256.831" r="231" stroke="url(#paint0_linear_7_6)" stroke-width="50"/>
<path d="M221.744 50.2357L236.363 30.7731C240.018 25.839 245.866 22.915 251.988 22.915C262.679 22.915 271.451 31.6869 271.451 42.3776V62.6625C271.451 74.6324 276.385 86.1454 285.065 94.369L362.459 168.199C407.049 210.779 432.268 269.806 432.268 331.483C432.268 419.476 360.997 490.747 273.004 490.747H256.831C159.975 490.747 81.394 412.166 81.394 315.31V311.838C81.394 267.248 99.1205 224.485 130.644 192.961L133.842 189.763C137.68 185.925 142.98 183.732 148.462 183.732C159.884 183.732 169.112 192.961 169.112 204.383V286.07C169.112 318.325 195.337 344.549 227.591 344.549C259.846 344.549 286.07 318.325 286.07 286.07V282.507C286.07 266.06 279.492 250.252 267.887 238.648L232.617 203.378C210.687 181.448 198.352 151.569 198.352 120.502C198.352 95.1914 206.576 70.4292 221.744 50.2357Z" fill="url(#paint1_linear_7_6)"/>
<defs>
<linearGradient id="paint0_linear_7_6" x1="256.831" y1="0.830933" x2="256.831" y2="512.831" gradientUnits="userSpaceOnUse">
<stop stop-color="#FF541E"/>
<stop offset="1" stop-color="#FF1E1E"/>
</linearGradient>
<linearGradient id="paint1_linear_7_6" x1="256.831" y1="22.915" x2="256.831" y2="490.747" gradientUnits="userSpaceOnUse">
<stop stop-color="#FF541E"/>
<stop offset="1" stop-color="#FF1E1E"/>
</linearGradient>
</defs>
</svg>
